<?xml version="1.0" encoding="UTF-8"?>
<svg xmlns="http://www.w3.org/2000/svg" xmlns:xlink="http://www.w3.org/1999/xlink" width="260pt" height="125pt" viewBox="686 244 260 125">
<path fill-rule="evenodd" fill="rgb(87.998962%, 33.999634%, 8.999634%)" fill-opacity="1" d="M 815.632812 266.464844 L 809.492188 266.464844 L 806.292969 261.269531 L 794.660156 261.269531 L 791.460938 266.464844 L 785.304688 266.464844 L 794.773438 251.121094 C 796.601562 248.367188 797.902344 247.296875 800.457031 247.296875 C 803.550781 247.296875 804.632812 248.902344 805.496094 249.992188 Z M 797.011719 257.46875 L 803.953125 257.46875 L 800.46875 251.800781 Z M 843.671875 247.296875 C 846.257812 247.296875 849.453125 248.402344 850.195312 252.511719 L 850.195312 260.488281 C 849.597656 266.164062 844.902344 266.464844 842.53125 266.464844 L 823.960938 266.464844 C 818.597656 266.25 817.601562 262.09375 817.601562 260.488281 L 817.601562 252.886719 C 817.9375 249.300781 820.839844 247.074219 824.238281 247.296875 Z M 844.3125 261.839844 L 844.3125 252.121094 L 823.390625 252.121094 L 823.390625 261.839844 Z M 743.261719 261.839844 L 743.261719 247.363281 L 749.144531 247.363281 L 749.144531 260.488281 C 748.679688 265.664062 744.5 266.625 742.671875 266.464844 L 724.195312 266.464844 C 721.65625 266.378906 718.355469 264.734375 718.128906 260.488281 L 718.128906 247.363281 L 723.917969 247.363281 L 723.917969 261.839844 Z M 707.132812 261.839844 L 707.132812 247.363281 L 713.015625 247.363281 L 713.015625 260.488281 C 712.667969 265.363281 708.878906 266.464844 706.773438 266.464844 L 689.710938 266.464844 L 689.710938 261.839844 Z M 753.316406 266.46875 L 753.316406 247.296875 L 759.214844 247.296875 L 759.214844 254.441406 L 777.824219 254.441406 L 777.824219 247.296875 L 783.71875 247.296875 L 783.71875 266.472656 L 777.824219 266.472656 L 777.824219 258.226562 L 759.214844 258.226562 L 759.214844 266.46875 Z M 885.128906 331.953125 C 869.453125 340.765625 847.152344 347.121094 828.855469 350.558594 L 828.855469 343.058594 C 844.988281 340.242188 865.15625 334.707031 878.863281 326.910156 C 877.847656 326.253906 876.765625 325.667969 875.585938 325.078125 L 874.996094 325.078125 C 862.335938 332.019531 843.480469 337.097656 828.855469 339.945312 L 828.855469 332.742188 C 837.542969 331.101562 850.925781 328.515625 858.792969 325.078125 L 838.625 325.078125 L 838.625 319.476562 L 926.449219 319.476562 L 926.449219 325.078125 L 894.308594 325.078125 C 906.445312 335.984375 903.261719 362.183594 874.863281 362.152344 L 874.863281 352.6875 C 883.75 352.230469 888.898438 347.9375 889.425781 342.5 C 872.238281 351.34375 848.53125 357.730469 828.855469 361.203125 L 828.855469 353.933594 C 847.941406 350.164062 870.929688 343.8125 887.261719 334.738281 C 886.667969 333.820312 885.949219 332.871094 885.128906 331.953125 Z M 876.601562 276.144531 L 887.128906 277.355469 C 889.652344 277.714844 889.980469 280.109375 889.980469 280.109375 L 889.980469 281.777344 L 940.515625 281.777344 L 940.515625 287.640625 L 824.425781 287.640625 L 824.425781 281.777344 L 876.601562 281.777344 Z M 910.675781 301.003906 L 910.675781 295.761719 L 856.136719 295.761719 L 856.136719 301.003906 Z M 923.921875 290.554688 L 923.921875 306.210938 L 842.890625 306.210938 L 842.890625 290.554688 Z M 942.320312 309.324219 L 942.320312 325.078125 L 929.070312 325.078125 L 929.070312 315.773438 L 835.871094 315.773438 L 835.871094 325.078125 L 822.621094 325.078125 L 822.621094 309.324219 Z M 926.449219 337.589844 C 923.824219 339.421875 919.496094 341.945312 916.839844 343.1875 C 922.183594 347.183594 930.121094 351.476562 936.484375 354.195312 L 936.484375 363.332031 C 922.316406 357.925781 908.96875 348.558594 901.65625 340.667969 C 912.183594 336.246094 923.367188 328.710938 926.449219 326.582031 Z M 756.476562 328.710938 L 792.484375 328.710938 L 792.484375 311.746094 L 756.476562 311.746094 Z M 756.476562 305.261719 L 805.539062 305.261719 L 805.539062 335.164062 L 756.476562 335.164062 L 756.476562 353.082031 L 808.75 353.082031 L 808.75 359.53125 L 743.230469 359.53125 L 743.230469 281.777344 L 808.949219 281.777344 L 808.949219 288.230469 L 756.476562 288.230469 Z M 707.84375 353.082031 L 707.84375 325.175781 L 691.382812 325.175781 L 691.382812 319.3125 L 707.84375 319.3125 L 707.84375 308.929688 L 693.511719 308.929688 L 693.511719 304.082031 L 689.710938 306.441406 L 689.710938 294.976562 C 689.710938 294.976562 716.042969 278.570312 716.011719 278.570312 C 716.042969 278.570312 731.257812 288.035156 737.753906 292.128906 L 737.753906 308.929688 L 721.09375 308.929688 L 721.09375 319.3125 L 737.71875 319.3125 L 737.71875 325.175781 L 721.09375 325.175781 L 721.09375 349.246094 C 726.734375 347.414062 732.242188 345.316406 737.6875 343.023438 L 737.6875 350.265625 C 722.996094 356.878906 707.679688 361.757812 691.382812 364.773438 L 691.382812 356.550781 C 696.957031 355.601562 702.433594 354.457031 707.84375 353.082031 Z M 724.011719 344.238281 C 725.652344 338.308594 726.503906 332.347656 726.832031 329.464844 L 736.472656 329.464844 C 735.785156 334.835938 735.128906 337.71875 734.144531 340.4375 C 733.359375 342.566406 730.800781 344.433594 726.800781 344.238281 Z M 695.152344 303.066406 L 736.800781 303.066406 L 715.878906 290.128906 C 715.847656 290.128906 695.152344 303.066406 695.152344 303.066406 Z M 692.726562 329.695312 L 701.15625 329.695312 C 701.15625 329.695312 704.171875 335.035156 705.449219 347.347656 L 695.941406 347.347656 C 695.941406 347.347656 695.152344 338.308594 692.726562 329.695312 "/>
</svg>
