<?xml version="1.0" encoding="UTF-8"?>
<svg xmlns="http://www.w3.org/2000/svg" xmlns:xlink="http://www.w3.org/1999/xlink" width="444pt" height="46pt" viewBox="594 283 444 46">
<path fill-rule="evenodd" fill="rgb(87.998962%, 33.999634%, 8.999634%)" fill-opacity="1" d="M 721.371094 324.78125 L 721.371094 287.332031 L 732.835938 287.332031 L 732.835938 301.289062 L 769.03125 301.289062 L 769.03125 287.332031 L 780.496094 287.332031 L 780.496094 324.785156 L 769.03125 324.785156 L 769.03125 308.679688 L 732.835938 308.679688 L 732.835938 324.78125 Z M 631.542969 315.734375 L 631.546875 287.464844 L 642.988281 287.464844 L 642.988281 313.097656 C 642.3125 322.621094 634.941406 324.773438 630.847656 324.773438 L 597.65625 324.773438 L 597.65625 315.734375 Z M 701.808594 315.734375 L 701.808594 287.464844 L 713.25 287.464844 L 713.25 313.097656 C 712.347656 323.207031 704.222656 325.085938 700.664062 324.773438 L 664.730469 324.773438 C 659.792969 324.605469 653.371094 321.390625 652.933594 313.097656 L 652.933594 287.464844 L 664.191406 287.464844 L 664.191406 315.734375 Z M 898.34375 315.734375 L 898.34375 296.757812 L 857.652344 296.757812 L 857.652344 315.734375 Z M 897.101562 287.335938 C 902.125 287.332031 908.339844 289.492188 909.785156 297.519531 L 909.785156 313.097656 C 908.625 324.1875 899.488281 324.773438 894.878906 324.773438 L 858.765625 324.773438 C 848.335938 324.347656 846.394531 316.238281 846.394531 313.097656 L 846.394531 298.253906 C 847.046875 291.246094 852.695312 286.898438 859.304688 287.335938 Z M 806.347656 307.199219 L 819.851562 307.199219 L 813.070312 296.132812 Z M 842.566406 324.773438 L 830.625 324.773438 L 824.398438 314.625 L 801.777344 314.625 L 795.554688 324.773438 L 783.582031 324.773438 L 801.996094 294.800781 C 805.550781 289.429688 808.082031 287.332031 813.046875 287.332031 C 819.066406 287.332031 821.171875 290.46875 822.851562 292.597656 Z M 842.566406 324.773438 "/>
<path fill-rule="evenodd" fill="rgb(87.998962%, 33.999634%, 8.999634%)" fill-opacity="1" d="M 922.371094 309.722656 L 926.136719 309.722656 C 926.136719 309.722656 927.46875 312.121094 928.042969 317.628906 L 923.824219 317.628906 C 923.824219 317.628906 923.457031 313.59375 922.371094 309.722656 Z M 923.457031 297.851562 L 942.042969 297.851562 L 932.710938 292.054688 C 932.6875 292.054688 923.457031 297.851562 923.457031 297.851562 Z M 936.332031 316.234375 C 937.070312 313.59375 937.4375 310.910156 937.601562 309.640625 L 941.882812 309.640625 C 941.574219 312.039062 941.289062 313.328125 940.859375 314.535156 C 940.488281 315.5 939.363281 316.316406 937.582031 316.234375 Z M 929.105469 320.1875 L 929.105469 307.71875 L 921.777344 307.71875 L 921.777344 305.097656 L 929.105469 305.097656 L 929.105469 300.46875 L 922.738281 300.46875 L 922.738281 298.300781 L 921.039062 299.34375 L 921.039062 294.226562 C 921.039062 294.226562 932.769531 286.894531 932.769531 286.894531 C 932.769531 286.894531 939.566406 291.132812 942.476562 292.957031 L 942.476562 300.46875 L 935.023438 300.46875 L 935.023438 305.097656 L 942.453125 305.097656 L 942.453125 307.71875 L 935.023438 307.71875 L 935.023438 318.46875 C 937.539062 317.648438 940.019531 316.726562 942.433594 315.683594 L 942.433594 318.917969 C 935.882812 321.886719 929.042969 324.054688 921.777344 325.40625 L 921.777344 321.722656 C 924.253906 321.3125 926.710938 320.800781 929.105469 320.1875 Z M 950.808594 298.832031 L 972.691406 298.832031 L 972.691406 312.179688 L 950.808594 312.179688 L 950.808594 320.1875 L 974.144531 320.1875 L 974.144531 323.074219 L 944.910156 323.074219 L 944.910156 288.328125 L 974.226562 288.328125 L 974.226562 291.214844 L 950.808594 291.214844 Z M 950.808594 309.292969 L 966.878906 309.292969 L 966.878906 301.71875 L 950.808594 301.71875 Z M 950.808594 309.292969 "/>
<path fill-rule="evenodd" fill="rgb(87.998962%, 33.999634%, 8.999634%)" fill-opacity="1" d="M 1027.878906 314.117188 C 1026.714844 314.933594 1024.789062 316.0625 1023.601562 316.613281 C 1025.996094 318.414062 1029.414062 319.972656 1033.753906 321.527344 L 1033.753906 325.621094 C 1026.753906 323.226562 1020.082031 319.03125 1016.824219 315.488281 C 1021.535156 313.523438 1026.527344 310.144531 1027.878906 309.203125 Z M 1034.984375 301.484375 L 1034.984375 308.527344 L 1029.066406 308.527344 L 1029.066406 304.371094 L 987.488281 304.371094 L 987.488281 308.527344 L 981.570312 308.527344 L 981.570312 301.484375 Z M 1026.753906 293.089844 L 1026.753906 300.113281 L 990.597656 300.113281 L 990.597656 293.089844 Z M 1020.859375 297.777344 L 1020.859375 295.421875 L 996.515625 295.421875 L 996.515625 297.777344 Z M 1005.648438 286.679688 L 1010.355469 287.214844 C 1011.480469 287.355469 1011.625 288.441406 1011.625 288.441406 L 1011.625 289.179688 L 1034.164062 289.179688 L 1034.164062 291.800781 L 982.371094 291.800781 L 982.371094 289.179688 L 1005.648438 289.179688 Z M 1009.453125 311.597656 C 1002.453125 315.53125 991.726562 318.375 983.558594 319.910156 L 983.558594 316.550781 C 990.761719 315.304688 1000.550781 312.824219 1006.648438 309.347656 C 1006.199219 309.058594 1005.730469 308.792969 1005.195312 308.527344 L 1004.929688 308.527344 C 999.28125 311.617188 990.085938 313.890625 983.558594 315.160156 L 983.558594 311.945312 C 987.445312 311.210938 994.183594 310.0625 997.703125 308.527344 L 988.714844 308.527344 L 988.714844 306.027344 L 1027.878906 306.027344 L 1027.878906 308.527344 L 1013.550781 308.527344 C 1018.972656 313.398438 1017.542969 325.109375 1004.867188 325.089844 L 1004.867188 320.851562 C 1008.839844 320.648438 1011.132812 318.742188 1011.359375 316.308594 C 1003.703125 320.257812 992.339844 323.105469 983.558594 324.660156 L 983.558594 321.425781 C 992.074219 319.746094 1003.128906 316.902344 1010.417969 312.847656 C 1010.152344 312.417969 1009.824219 312.007812 1009.453125 311.597656 "/>
</svg>
